<?xml version="1.0" encoding="UTF-8" standalone="no"?>
<svg
   xmlns:dc="http://purl.org/dc/elements/1.1/"
   xmlns:cc="http://creativecommons.org/ns#"
   xmlns:rdf="http://www.w3.org/1999/02/22-rdf-syntax-ns#"
   xmlns:svg="http://www.w3.org/2000/svg"
   xmlns="http://www.w3.org/2000/svg"
   id="svg3144"
   version="1.1"
   viewBox="0 0 25.180674 39.248039"
   height="39.248039mm"
   width="25.180674mm">
  <defs
     id="defs3138" />
  <metadata
     id="metadata3141">
    <rdf:RDF>
      <cc:Work
         rdf:about="">
        <dc:format>image/svg+xml</dc:format>
        <dc:type
           rdf:resource="http://purl.org/dc/dcmitype/StillImage" />
        <dc:title></dc:title>
      </cc:Work>
    </rdf:RDF>
  </metadata>
  <g
     transform="translate(-58.702269,-57.202123)"
     id="layer1">
    <g
       id="g2803"
       transform="matrix(0.35277777,0,0,-0.35277777,-76.947082,227.94972)">
      <g
         id="g258"
         transform="translate(417.5439,458.0679)">
        <path
           d="m 0,0 h -16.5 c 0,4.556 3.694,8.25 8.25,8.25 C -3.693,8.25 0,4.556 0,0"
           style="fill:#3cddef;fill-opacity:1;fill-rule:nonzero;stroke:none"
           id="path260" />
      </g>
      <g
         id="g262"
         transform="translate(401.0439,392.7139)">
        <path
           d="M 0,0 H 16.5 C 16.5,-4.556 12.806,-8.25 8.25,-8.25 3.693,-8.25 0,-4.556 0,0"
           style="fill:#3cddef;fill-opacity:1;fill-rule:nonzero;stroke:none"
           id="path264" />
      </g>
      <g
         id="g266"
         transform="translate(453.0615,433.5669)">
        <path
           d="M 0,0 C 0,-0.494 -0.188,-0.985 -0.562,-1.36 L -8.171,-8.968 C -8.53,-9.329 -9.02,-9.53 -9.528,-9.53 c -0.511,0 -0.999,0.202 -1.359,0.562 l -7.607,7.608 c -0.75,0.751 -0.75,1.965 -0.001,2.717 0.753,0.751 1.969,0.749 2.719,-10e-4 l 6.246,-6.249 6.251,6.25 c 0.748,0.749 1.966,0.75 2.717,0 C -0.188,0.981 -0.001,0.49 0,0"
           style="fill:#3cddef;fill-opacity:1;fill-rule:nonzero;stroke:none"
           id="path268" />
      </g>
      <g
         id="g270"
         transform="translate(445.4551,443.9795)">
        <path
           d="m 0,0 v -17.451 c 0,-1.061 -0.861,-1.922 -1.922,-1.921 -1.061,0 -1.92,0.86 -1.921,1.92 L -3.842,0 C -3.844,1.06 -2.983,1.921 -1.921,1.92 -0.86,1.921 0,1.06 0,0"
           style="fill:#3cddef;fill-opacity:1;fill-rule:nonzero;stroke:none"
           id="path272" />
      </g>
      <g
         id="g274"
         transform="translate(409.9834,460.6875)">
        <path
           d="m 0,0 c -0.553,0 -1,0.448 -1,1 v 1.5 c 0,0.552 0.447,1 1,1 0.553,0 1,-0.448 1,-1 V 1 C 1,0.448 0.553,0 0,0"
           style="fill:#3cddef;fill-opacity:1;fill-rule:nonzero;stroke:none"
           id="path276" />
      </g>
      <g
         id="g278"
         transform="translate(429.8418,479.1743)">
        <path
           d="m 0,0 h -2.972 c -0.552,0 -1,0.448 -1,1 0,0.552 0.448,1 1,1 H 0 C 0.553,2 1,1.552 1,1 1,0.448 0.553,0 0,0 m -10.865,-0.38 c -0.446,0 -0.851,0.299 -0.968,0.75 -0.138,0.535 0.185,1.08 0.719,1.218 1.034,0.267 2.105,0.406 3.183,0.412 h 0.006 c 0.55,0 0.997,-0.444 1,-0.994 C -6.922,0.454 -7.367,0.003 -7.919,0 -8.833,-0.005 -9.739,-0.123 -10.614,-0.348 -10.698,-0.37 -10.782,-0.38 -10.865,-0.38 M 7.646,-1.581 c -0.168,0 -0.338,0.043 -0.496,0.133 C 6.361,-0.996 5.518,-0.644 4.646,-0.401 4.113,-0.253 3.802,0.298 3.949,0.831 4.097,1.363 4.655,1.674 5.181,1.526 6.214,1.239 7.211,0.822 8.145,0.287 8.624,0.013 8.79,-0.598 8.516,-1.078 8.33,-1.4 7.993,-1.581 7.646,-1.581 m -25.004,-3.086 c -0.214,0 -0.429,0.068 -0.611,0.209 -0.437,0.338 -0.517,0.966 -0.179,1.403 0.656,0.848 1.416,1.615 2.259,2.278 0.435,0.344 1.064,0.266 1.405,-0.167 0.34,-0.434 0.266,-1.063 -0.168,-1.404 -0.714,-0.563 -1.359,-1.212 -1.914,-1.931 -0.198,-0.255 -0.494,-0.388 -0.792,-0.388 m 30.146,-2.755 c -0.392,0 -0.765,0.233 -0.924,0.618 -0.345,0.837 -0.797,1.632 -1.341,2.362 -0.329,0.443 -0.237,1.069 0.206,1.399 0.443,0.331 1.07,0.238 1.4,-0.205 0.642,-0.863 1.175,-1.803 1.583,-2.792 0.211,-0.51 -0.031,-1.095 -0.542,-1.306 -0.125,-0.051 -0.254,-0.076 -0.382,-0.076 m -32.646,-4.595 c -0.553,0 -1,0.432 -1,0.984 V -11 c 0,1.065 0.129,2.125 0.383,3.15 0.134,0.537 0.676,0.865 1.212,0.729 0.536,-0.133 0.863,-0.675 0.73,-1.212 -0.216,-0.867 -0.325,-1.765 -0.325,-2.667 0,-0.552 -0.448,-1.017 -1,-1.017 m 33.549,-3.211 c -0.552,0 -1,0.448 -1,1 v 2.972 c 0,0.552 0.448,1 1,1 0.553,0 1,-0.448 1,-1 v -2.972 c 0,-0.552 -0.447,-1 -1,-1 m 0,-7.925 c -0.552,0 -1,0.447 -1,1 v 2.971 c 0,0.553 0.448,1 1,1 0.553,0 1,-0.447 1,-1 v -2.971 c 0,-0.553 -0.447,-1 -1,-1 m 0,-7.926 c -0.552,0 -1,0.448 -1,1 v 2.972 c 0,0.552 0.448,1 1,1 0.553,0 1,-0.448 1,-1 v -2.972 c 0,-0.552 -0.447,-1 -1,-1 m 0,-7.926 c -0.552,0 -1,0.448 -1,1 v 2.972 c 0,0.553 0.448,1 1,1 0.553,0 1,-0.447 1,-1 v -2.972 c 0,-0.552 -0.447,-1 -1,-1 m 0,-7.925 c -0.552,0 -1,0.448 -1,1 v 2.972 c 0,0.552 0.448,1 1,1 0.553,0 1,-0.448 1,-1 v -2.972 c 0,-0.552 -0.447,-1 -1,-1 m 0,-7.926 c -0.552,0 -1,0.448 -1,1 v 2.972 c 0,0.552 0.448,1 1,1 0.553,0 1,-0.448 1,-1 v -2.972 c 0,-0.552 -0.447,-1 -1,-1 m 0,-7.925 c -0.552,0 -1,0.448 -1,1 v 2.972 c 0,0.552 0.448,1 1,1 0.553,0 1,-0.448 1,-1 v -2.972 c 0,-0.552 -0.447,-1 -1,-1 m 0,-7.926 c -0.552,0 -1,0.448 -1,1 v 2.972 c 0,0.552 0.448,1 1,1 0.553,0 1,-0.448 1,-1 v -2.972 c 0,-0.552 -0.447,-1 -1,-1 m 0,-7.925 c -0.552,0 -1,0.447 -1,1 v 2.971 c 0,0.553 0.448,1 1,1 0.553,0 1,-0.447 1,-1 v -2.971 c 0,-0.553 -0.447,-1 -1,-1 m 0,-7.926 c -0.552,0 -1,0.448 -1,1 v 2.972 c 0,0.552 0.448,1 1,1 0.553,0 1,-0.448 1,-1 v -2.972 c 0,-0.552 -0.447,-1 -1,-1 m -0.344,-7.897 c -0.079,0 -0.159,0.01 -0.24,0.029 -0.536,0.132 -0.864,0.674 -0.733,1.21 0.211,0.857 0.317,1.742 0.317,2.631 0,0.552 0.448,1.037 1,1.037 0.553,0 1,-0.411 1,-0.964 v -0.073 c 0,-1.05 -0.126,-2.095 -0.374,-3.108 -0.112,-0.456 -0.521,-0.762 -0.97,-0.762 m -30.816,-4.317 c -0.304,0 -0.604,0.138 -0.801,0.4 -0.645,0.861 -1.181,1.799 -1.593,2.788 -0.213,0.51 0.028,1.095 0.538,1.308 0.51,0.21 1.095,-0.029 1.307,-0.539 0.349,-0.836 0.802,-1.629 1.348,-2.358 0.332,-0.442 0.242,-1.068 -0.2,-1.4 -0.18,-0.135 -0.39,-0.199 -0.599,-0.199 m 26.605,-2.226 c -0.296,0 -0.588,0.13 -0.785,0.38 -0.343,0.433 -0.27,1.062 0.163,1.405 0.714,0.564 1.355,1.215 1.908,1.936 0.335,0.437 0.963,0.52 1.401,0.184 0.439,-0.336 0.522,-0.964 0.185,-1.402 -0.653,-0.851 -1.41,-1.62 -2.252,-2.287 -0.185,-0.145 -0.403,-0.216 -0.62,-0.216 m -20.177,-2.161 c -0.088,0 -0.177,0.012 -0.266,0.036 -1.034,0.284 -2.032,0.698 -2.967,1.228 -0.481,0.273 -0.649,0.884 -0.375,1.364 0.271,0.481 0.88,0.648 1.363,0.376 0.791,-0.449 1.635,-0.799 2.509,-1.039 0.533,-0.147 0.845,-0.697 0.699,-1.23 -0.121,-0.444 -0.525,-0.735 -0.963,-0.735 m 12.839,-0.426 c -0.548,0 -0.995,0.441 -1,0.99 -0.005,0.553 0.438,1.005 0.991,1.01 0.913,0.008 1.819,0.128 2.694,0.356 0.535,0.142 1.08,-0.179 1.221,-0.714 0.14,-0.534 -0.181,-1.08 -0.715,-1.22 -1.034,-0.271 -2.104,-0.413 -3.182,-0.422 z m -4.952,0 h -2.973 c -0.553,0 -1,0.447 -1,1 0,0.552 0.447,1 1,1 h 2.973 c 0.552,0 1,-0.448 1,-1 0,-0.553 -0.448,-1 -1,-1"
           style="fill:#3cddef;fill-opacity:1;fill-rule:nonzero;stroke:none"
           id="path280" />
      </g>
      <g
         id="g282"
         transform="translate(409.9834,387.855)">
        <path
           d="m 0,0 c -0.553,0 -1,0.448 -1,1 v 1.5 c 0,0.552 0.447,1 1,1 0.553,0 1,-0.448 1,-1 V 1 C 1,0.448 0.553,0 0,0"
           style="fill:#3cddef;fill-opacity:1;fill-rule:nonzero;stroke:none"
           id="path284" />
      </g>
      <path
         d="M 422.918,435.392 H 395.67 v 10.862 h 27.248 z"
         style="fill:#3cddef;fill-opacity:1;fill-rule:nonzero;stroke:none"
         id="path286" />
      <path
         d="M 422.918,419.96 H 395.67 v 10.862 h 27.248 z"
         style="fill:#3cddef;fill-opacity:1;fill-rule:nonzero;stroke:none"
         id="path288" />
      <path
         d="M 422.918,404.527 H 395.67 v 10.862 h 27.248 z"
         style="fill:#3cddef;fill-opacity:1;fill-rule:nonzero;stroke:none"
         id="path290" />
      <g
         id="g292"
         transform="translate(419.2148,449.2803)">
        <path
           d="m 0,0 h -19.842 c -0.553,0 -1,0.448 -1,1 0,0.552 0.447,1 1,1 H 0 C 0.553,2 1,1.552 1,1 1,0.448 0.553,0 0,0"
           style="fill:#3cddef;fill-opacity:1;fill-rule:nonzero;stroke:none"
           id="path294" />
      </g>
      <g
         id="g296"
         transform="translate(419.2148,399.502)">
        <path
           d="m 0,0 h -19.842 c -0.553,0 -1,0.448 -1,1 0,0.552 0.447,1 1,1 H 0 C 0.553,2 1,1.552 1,1 1,0.448 0.553,0 0,0"
           style="fill:#3cddef;fill-opacity:1;fill-rule:nonzero;stroke:none"
           id="path298" />
      </g>
      <g
         id="g300"
         transform="translate(400.8525,456.3721)">
        <path
           d="m 0,0 c -5.79,0 -10.5,-4.71 -10.5,-10.5 v -40.962 c 0,-5.79 4.71,-10.5 10.5,-10.5 h 16.884 c 5.79,0 10.5,4.71 10.5,10.5 V -10.5 c 0,5.79 -4.71,10.5 -10.5,10.5 z M 16.884,-64.962 H 0 c -7.444,0 -13.5,6.056 -13.5,13.5 V -10.5 C -13.5,-3.056 -7.444,3 0,3 h 16.884 c 7.444,0 13.5,-6.056 13.5,-13.5 v -40.962 c 0,-7.444 -6.056,-13.5 -13.5,-13.5"
           style="fill:#1d95bc;fill-opacity:1;fill-rule:nonzero;stroke:none"
           id="path302" />
      </g>
    </g>
  </g>
</svg>
