<?xml version="1.0" encoding="UTF-8" standalone="no"?>
<svg
   xmlns:dc="http://purl.org/dc/elements/1.1/"
   xmlns:cc="http://creativecommons.org/ns#"
   xmlns:rdf="http://www.w3.org/1999/02/22-rdf-syntax-ns#"
   xmlns:svg="http://www.w3.org/2000/svg"
   xmlns="http://www.w3.org/2000/svg"
   id="svg3144"
   version="1.1"
   viewBox="0 0 34.165501 30.917318"
   height="30.917318mm"
   width="34.165501mm">
  <defs
     id="defs3138" />
  <metadata
     id="metadata3141">
    <rdf:RDF>
      <cc:Work
         rdf:about="">
        <dc:format>image/svg+xml</dc:format>
        <dc:type
           rdf:resource="http://purl.org/dc/dcmitype/StillImage" />
        <dc:title></dc:title>
      </cc:Work>
    </rdf:RDF>
  </metadata>
  <g
     transform="translate(-45.843781,-69.681201)"
     id="layer1">
    <g
       id="g2881"
       transform="matrix(0.35277777,0,0,-0.35277777,-43.894507,193.24172)">
      <g
         id="g404"
         transform="translate(328.5156,320.5815)">
        <path
           d="m 0,0 h -6.988 l 2.609,-6.095 H 0 c 1.684,0 3.047,1.365 3.047,3.047 C 3.047,-1.365 1.684,0 0,0"
           style="fill:#3cddef;fill-opacity:1;fill-rule:nonzero;stroke:none"
           id="path406" />
      </g>
      <g
         id="g408"
         transform="translate(324.2383,324.3491)">
        <path
           d="m 0,0 h -4.904 l 2.609,-6.095 H 0 c 1.683,0 3.047,1.365 3.047,3.047 C 3.047,-1.365 1.683,0 0,0"
           style="fill:#3cddef;fill-opacity:1;fill-rule:nonzero;stroke:none"
           id="path410" />
      </g>
      <g
         id="g412"
         transform="translate(338.1768,283.5796)">
        <path
           d="m 0,0 c -0.553,0 -1.085,0.307 -1.346,0.836 l -21.522,43.603 -8.01,-13.051 c -0.434,-0.706 -1.358,-0.927 -2.062,-0.493 -0.706,0.433 -0.928,1.356 -0.495,2.063 l 9.431,15.366 c 0.285,0.465 0.775,0.737 1.348,0.714 0.545,-0.026 1.034,-0.345 1.275,-0.835 L 1.344,2.165 C 1.711,1.421 1.406,0.522 0.663,0.155 0.449,0.05 0.223,0 0,0"
           style="fill:#1d95bc;fill-opacity:1;fill-rule:nonzero;stroke:none"
           id="path414" />
      </g>
      <g
         id="g416"
         transform="translate(282.1992,318.2842)">
        <path
           d="m 0,0 c -5.763,0 -10.434,4.671 -10.434,10.434 0,5.762 4.671,10.434 10.434,10.434 2.561,0 4.905,-0.923 6.722,-2.453 z"
           style="fill:#3cddef;fill-opacity:1;fill-rule:nonzero;stroke:none"
           id="path418" />
      </g>
      <g
         id="g420"
         transform="translate(308.125,311.2681)">
        <path
           d="m 0,0 10.395,-24.435 5.881,-1.753 7.755,1.277 L 11.767,0 Z"
           style="fill:#3cddef;fill-opacity:1;fill-rule:nonzero;stroke:none"
           id="path422" />
      </g>
      <g
         id="g424"
         transform="translate(285.6338,316.291)">
        <path
           d="m 0,0 -11.82,-29.354 7.098,-2.13 5.16,2.375 5.706,-2.375 5.35,2.402 4.97,-2.584 6.027,2.421 6.285,-1.611 L 14.802,0 Z"
           style="fill:#3cddef;fill-opacity:1;fill-rule:nonzero;stroke:none"
           id="path426" />
      </g>
      <g
         id="g428"
         transform="translate(264.2217,274.6216)">
        <path
           d="M 0,0 C -0.828,0 -1.5,0.671 -1.5,1.5 -1.5,2.329 -0.828,3 0,3 1.785,3 3.38,4.003 4.161,5.618 4.523,6.364 5.424,6.675 6.165,6.314 6.911,5.954 7.223,5.056 6.862,4.311 5.574,1.652 2.945,0 0,0"
           style="fill:#1d95bc;fill-opacity:1;fill-rule:nonzero;stroke:none"
           id="path430" />
      </g>
      <g
         id="g432"
         transform="translate(275.2451,274.6216)">
        <path
           d="M 0,0 C -2.901,0 -5.596,1.692 -6.862,4.311 -7.223,5.057 -6.91,5.954 -6.165,6.315 -5.418,6.677 -4.521,6.363 -4.161,5.618 -3.381,4.003 -1.786,3 0,3 1.785,3 3.379,4.003 4.159,5.618 4.519,6.363 5.413,6.677 6.163,6.315 6.908,5.954 7.221,5.057 6.86,4.311 5.594,1.692 2.9,0 0,0"
           style="fill:#1d95bc;fill-opacity:1;fill-rule:nonzero;stroke:none"
           id="path434" />
      </g>
      <g
         id="g436"
         transform="translate(286.2666,274.6216)">
        <path
           d="m 0,0 c -2.945,0 -5.574,1.652 -6.862,4.311 -0.361,0.745 -0.049,1.643 0.697,2.003 0.743,0.36 1.643,0.05 2.003,-0.696 C -3.38,4.003 -1.785,3 0,3 1.784,3 3.379,4.003 4.16,5.618 4.522,6.364 5.423,6.675 6.164,6.314 6.91,5.954 7.222,5.056 6.861,4.311 5.573,1.652 2.944,0 0,0"
           style="fill:#1d95bc;fill-opacity:1;fill-rule:nonzero;stroke:none"
           id="path438" />
      </g>
      <g
         id="g440"
         transform="translate(297.2891,274.6216)">
        <path
           d="m 0,0 c -2.945,0 -5.574,1.652 -6.862,4.311 -0.361,0.745 -0.049,1.643 0.697,2.003 0.742,0.36 1.643,0.05 2.004,-0.696 C -3.38,4.003 -1.785,3 0,3 1.785,3 3.38,4.003 4.16,5.618 4.521,6.363 5.414,6.677 6.164,6.315 6.909,5.954 7.222,5.057 6.861,4.311 5.575,1.652 2.946,0 0,0"
           style="fill:#1d95bc;fill-opacity:1;fill-rule:nonzero;stroke:none"
           id="path442" />
      </g>
      <g
         id="g444"
         transform="translate(308.3125,274.6216)">
        <path
           d="m 0,0 c -2.947,0 -5.577,1.652 -6.863,4.311 -0.361,0.746 -0.048,1.643 0.697,2.004 0.747,0.362 1.644,0.048 2.004,-0.697 C -3.382,4.003 -1.786,3 0,3 0.828,3 1.5,2.329 1.5,1.5 1.5,0.671 0.828,0 0,0"
           style="fill:#1d95bc;fill-opacity:1;fill-rule:nonzero;stroke:none"
           id="path446" />
      </g>
      <g
         id="g448"
         transform="translate(319.333,274.6216)">
        <path
           d="M 0,0 C -2.901,0 -5.595,1.692 -6.861,4.311 -7.222,5.057 -6.909,5.954 -6.164,6.315 -5.416,6.677 -4.521,6.363 -4.16,5.618 -3.38,4.003 -1.785,3 0,3 0.828,3 1.5,2.329 1.5,1.5 1.5,0.671 0.828,0 0,0"
           style="fill:#1d95bc;fill-opacity:1;fill-rule:nonzero;stroke:none"
           id="path450" />
      </g>
      <g
         id="g452"
         transform="translate(330.3545,274.6216)">
        <path
           d="M 0,0 C -2.902,0 -5.595,1.692 -6.86,4.312 -7.221,5.058 -6.908,5.955 -6.162,6.315 -5.417,6.677 -4.52,6.362 -4.159,5.617 -3.379,4.003 -1.785,3 0,3 0.828,3 1.5,2.329 1.5,1.5 1.5,0.671 0.828,0 0,0"
           style="fill:#1d95bc;fill-opacity:1;fill-rule:nonzero;stroke:none"
           id="path454" />
      </g>
      <g
         id="g456"
         transform="translate(341.3779,274.6216)">
        <path
           d="m 0,0 c -2.945,0 -5.574,1.652 -6.862,4.311 -0.361,0.745 -0.049,1.643 0.697,2.003 0.742,0.36 1.642,0.05 2.004,-0.696 C -3.38,4.003 -1.785,3 0,3 0.828,3 1.5,2.329 1.5,1.5 1.5,0.671 0.828,0 0,0"
           style="fill:#1d95bc;fill-opacity:1;fill-rule:nonzero;stroke:none"
           id="path458" />
      </g>
      <g
         id="g460"
         transform="translate(278.7227,265.4453)">
        <path
           d="M 0,0 C -2.901,0 -5.595,1.692 -6.861,4.312 -7.222,5.058 -6.909,5.955 -6.164,6.315 -5.416,6.677 -4.521,6.364 -4.16,5.618 -3.38,4.003 -1.785,3 0,3 0.828,3 1.5,2.329 1.5,1.5 1.5,0.672 0.828,0 0,0"
           style="fill:#1d95bc;fill-opacity:1;fill-rule:nonzero;stroke:none"
           id="path462" />
      </g>
      <g
         id="g464"
         transform="translate(289.7441,265.4453)">
        <path
           d="M 0,0 C -2.902,0 -5.595,1.692 -6.86,4.312 -7.221,5.058 -6.908,5.955 -6.162,6.315 -5.417,6.677 -4.52,6.364 -4.159,5.617 -3.379,4.003 -1.785,3 0,3 0.828,3 1.5,2.329 1.5,1.5 1.5,0.672 0.828,0 0,0"
           style="fill:#1d95bc;fill-opacity:1;fill-rule:nonzero;stroke:none"
           id="path466" />
      </g>
      <g
         id="g468"
         transform="translate(300.7676,265.4453)">
        <path
           d="m 0,0 c -2.945,0 -5.574,1.652 -6.862,4.311 -0.361,0.746 -0.049,1.643 0.697,2.004 0.743,0.36 1.643,0.049 2.004,-0.697 C -3.38,4.003 -1.785,3 0,3 0.828,3 1.5,2.329 1.5,1.5 1.5,0.672 0.828,0 0,0"
           style="fill:#1d95bc;fill-opacity:1;fill-rule:nonzero;stroke:none"
           id="path470" />
      </g>
      <g
         id="g472"
         transform="translate(268.0645,284.0884)">
        <path
           d="M 0,0 C -0.187,0 -0.376,0.035 -0.561,0.109 -1.328,0.419 -1.7,1.293 -1.39,2.062 l 24.34,60.327 c 0.225,0.557 0.761,0.927 1.362,0.938 0.561,0.011 1.151,-0.337 1.397,-0.885 L 45.533,18.274 c 0.34,-0.755 0.002,-1.643 -0.754,-1.982 -0.757,-0.339 -1.644,0 -1.982,0.754 L 24.414,58.001 1.392,0.939 C 1.156,0.355 0.594,0 0,0"
           style="fill:#1d95bc;fill-opacity:1;fill-rule:nonzero;stroke:none"
           id="path474" />
      </g>
      <g
         id="g476"
         transform="translate(258.7109,283.125)">
        <path
           d="M 0,0 C -0.828,0 -1.5,0.671 -1.5,1.5 -1.5,2.329 -0.828,3 0,3 1.785,3 3.38,4.003 4.161,5.618 4.523,6.363 5.423,6.675 6.165,6.314 6.911,5.954 7.223,5.056 6.862,4.311 5.574,1.652 2.945,0 0,0"
           style="fill:#1d95bc;fill-opacity:1;fill-rule:nonzero;stroke:none"
           id="path478" />
      </g>
      <g
         id="g480"
         transform="translate(269.7344,283.125)">
        <path
           d="m 0,0 c -2.901,0 -5.596,1.692 -6.862,4.311 -0.361,0.746 -0.048,1.643 0.697,2.004 0.747,0.36 1.644,0.049 2.004,-0.697 C -3.381,4.003 -1.786,3 0,3 1.785,3 3.379,4.003 4.159,5.618 4.519,6.364 5.413,6.675 6.163,6.315 6.908,5.954 7.221,5.057 6.86,4.311 5.594,1.692 2.9,0 0,0"
           style="fill:#1d95bc;fill-opacity:1;fill-rule:nonzero;stroke:none"
           id="path482" />
      </g>
      <g
         id="g484"
         transform="translate(280.7559,283.125)">
        <path
           d="m 0,0 c -2.9,0 -5.594,1.692 -6.862,4.311 -0.361,0.745 -0.049,1.643 0.697,2.003 0.742,0.36 1.642,0.049 2.004,-0.696 C -3.38,4.003 -1.785,3 0,3 1.784,3 3.379,4.003 4.162,5.619 4.523,6.365 5.421,6.677 6.166,6.314 6.911,5.953 7.223,5.056 6.861,4.31 5.573,1.651 2.944,0 0,0"
           style="fill:#1d95bc;fill-opacity:1;fill-rule:nonzero;stroke:none"
           id="path486" />
      </g>
      <g
         id="g488"
         transform="translate(291.7783,283.125)">
        <path
           d="m 0,0 c -2.946,0 -5.575,1.652 -6.861,4.311 -0.361,0.746 -0.048,1.643 0.697,2.004 0.747,0.36 1.643,0.049 2.004,-0.697 C -3.38,4.003 -1.785,3 0,3 1.785,3 3.38,4.003 4.16,5.618 4.521,6.364 5.414,6.675 6.164,6.315 6.909,5.954 7.222,5.057 6.861,4.311 5.575,1.652 2.946,0 0,0"
           style="fill:#1d95bc;fill-opacity:1;fill-rule:nonzero;stroke:none"
           id="path490" />
      </g>
      <g
         id="g492"
         transform="translate(302.8018,283.125)">
        <path
           d="m 0,0 c -2.902,0 -5.597,1.692 -6.863,4.311 -0.361,0.746 -0.048,1.643 0.697,2.004 0.747,0.36 1.644,0.049 2.004,-0.697 C -3.382,4.003 -1.786,3 0,3 1.785,3 3.379,4.003 4.159,5.618 4.52,6.364 5.414,6.675 6.163,6.315 6.908,5.954 7.221,5.057 6.86,4.311 5.594,1.692 2.9,0 0,0"
           style="fill:#1d95bc;fill-opacity:1;fill-rule:nonzero;stroke:none"
           id="path494" />
      </g>
      <g
         id="g496"
         transform="translate(313.8223,283.125)">
        <path
           d="m 0,0 c -2.901,0 -5.595,1.692 -6.861,4.311 -0.361,0.746 -0.048,1.643 0.697,2.004 0.748,0.36 1.643,0.049 2.004,-0.697 C -3.38,4.003 -1.785,3 0,3 1.785,3 3.38,4.003 4.161,5.618 4.523,6.363 5.423,6.675 6.165,6.314 6.911,5.954 7.223,5.056 6.862,4.311 5.574,1.652 2.945,0 0,0"
           style="fill:#1d95bc;fill-opacity:1;fill-rule:nonzero;stroke:none"
           id="path498" />
      </g>
      <g
         id="g500"
         transform="translate(324.8437,283.125)">
        <path
           d="m 0,0 c -2.9,0 -5.594,1.692 -6.86,4.311 -0.361,0.746 -0.048,1.643 0.697,2.004 0.747,0.36 1.643,0.049 2.004,-0.697 C -3.379,4.003 -1.785,3 0,3 1.786,3 3.381,4.003 4.161,5.618 4.521,6.364 5.415,6.675 6.165,6.315 6.91,5.954 7.223,5.057 6.862,4.311 5.576,1.652 2.946,0 0,0"
           style="fill:#1d95bc;fill-opacity:1;fill-rule:nonzero;stroke:none"
           id="path502" />
      </g>
      <g
         id="g504"
         transform="translate(335.8672,283.125)">
        <path
           d="m 0,0 c -2.945,0 -5.574,1.652 -6.862,4.311 -0.361,0.745 -0.049,1.643 0.697,2.003 0.742,0.36 1.642,0.049 2.004,-0.696 C -3.38,4.003 -1.785,3 0,3 1.785,3 3.38,4.003 4.16,5.618 4.52,6.364 5.415,6.675 6.164,6.315 6.909,5.954 7.222,5.057 6.861,4.311 5.595,1.692 2.901,0 0,0"
           style="fill:#1d95bc;fill-opacity:1;fill-rule:nonzero;stroke:none"
           id="path506" />
      </g>
      <g
         id="g508"
         transform="translate(346.8887,283.125)">
        <path
           d="m 0,0 c -2.901,0 -5.595,1.692 -6.861,4.311 -0.361,0.746 -0.048,1.643 0.697,2.004 0.748,0.36 1.643,0.049 2.004,-0.697 C -3.38,4.003 -1.785,3 0,3 0.828,3 1.5,2.329 1.5,1.5 1.5,0.671 0.828,0 0,0"
           style="fill:#1d95bc;fill-opacity:1;fill-rule:nonzero;stroke:none"
           id="path510" />
      </g>
    </g>
  </g>
</svg>
