<?xml version="1.0" encoding="UTF-8" standalone="no"?>
<svg
   xmlns:dc="http://purl.org/dc/elements/1.1/"
   xmlns:cc="http://creativecommons.org/ns#"
   xmlns:rdf="http://www.w3.org/1999/02/22-rdf-syntax-ns#"
   xmlns:svg="http://www.w3.org/2000/svg"
   xmlns="http://www.w3.org/2000/svg"
   id="svg3144"
   version="1.1"
   viewBox="0 0 28.846529 33.347198"
   height="33.347198mm"
   width="28.846529mm">
  <defs
     id="defs3138" />
  <metadata
     id="metadata3141">
    <rdf:RDF>
      <cc:Work
         rdf:about="">
        <dc:format>image/svg+xml</dc:format>
        <dc:type
           rdf:resource="http://purl.org/dc/dcmitype/StillImage" />
        <dc:title></dc:title>
      </cc:Work>
    </rdf:RDF>
  </metadata>
  <g
     transform="translate(-68.754913,-58.195226)"
     id="layer1">
    <g
       id="g3028"
       transform="matrix(0.35277777,0,0,-0.35277777,-63.390579,142.56896)">
      <g
         id="g694"
         transform="translate(401.5029,187.1348)">
        <path
           d="M 0,0 -9.75,-15.608 H 3.375 L -10.51,-39.658 26.814,-7.387 H 13.625 L 18.92,0 Z"
           style="fill:#3cddef;fill-opacity:1;fill-rule:nonzero;stroke:none"
           id="path696" />
      </g>
      <g
         id="g698"
         transform="translate(397.1963,219.4434)">
        <path
           d="m 0,0 c -2.065,1.547 -4.622,2.475 -7.401,2.475 -6.835,0 -12.375,-5.54 -12.375,-12.375 0,-5.351 3.401,-9.894 8.154,-11.621 0.699,4.527 4.007,8.577 9.929,8.577 0.362,0 0.712,-0.021 1.054,-0.051 C -3.104,-9.13 -2.893,-3.569 0,0"
           style="fill:#3cddef;fill-opacity:1;fill-rule:nonzero;stroke:none"
           id="path700" />
      </g>
      <g
         id="g702"
         transform="translate(444.2627,215.543)">
        <path
           d="m 0,0 h -21.632 c 0.939,-2.711 0.341,-6.272 -1,-9.201 4.035,0.08 8.093,0.17 12.09,-0.288 2.4,-0.276 4.587,-0.828 6.243,-2.725 1.5,-1.719 3.337,-3.992 3.839,-6.303 H 0 c 5.112,0 9.258,4.146 9.258,9.259 C 9.258,-4.146 5.112,0 0,0"
           style="fill:#3cddef;fill-opacity:1;fill-rule:nonzero;stroke:none"
           id="path704" />
      </g>
      <g
         id="g706"
         transform="translate(433.5518,185.6348)">
        <path
           d="m 0,0 h -39.082 c -6.005,0 -10.891,4.886 -10.891,10.892 0,6.005 4.886,10.891 10.891,10.891 h 1.578 c 0.828,0 1.5,-0.672 1.5,-1.5 0,-0.828 -0.672,-1.5 -1.5,-1.5 h -1.578 c -4.351,0 -7.891,-3.54 -7.891,-7.891 0,-4.352 3.54,-7.892 7.891,-7.892 L 0,3 c 4.351,0 7.891,3.54 7.891,7.892 0,4.351 -3.54,7.891 -7.891,7.891 h -11.811 c -0.828,0 -1.5,0.672 -1.5,1.5 0,0.828 0.672,1.5 1.5,1.5 H 0 c 6.005,0 10.891,-4.886 10.891,-10.891 C 10.891,4.886 6.005,0 0,0"
           style="fill:#1d95bc;fill-opacity:1;fill-rule:nonzero;stroke:none"
           id="path708" />
      </g>
      <g
         id="g710"
         transform="translate(408.8955,196.2637)">
        <path
           d="M 0,0 C -0.828,0 -1.5,0.672 -1.5,1.5 -1.5,2.328 -0.828,3 0,3 6.998,3 12.691,8.693 12.691,15.692 12.691,22.69 6.998,28.384 0,28.384 c -6.998,0 -12.691,-5.694 -12.691,-12.692 0,-1.886 0.404,-3.702 1.201,-5.397 0.352,-0.75 0.03,-1.644 -0.719,-1.996 -0.752,-0.352 -1.644,-0.03 -1.996,0.719 -0.986,2.098 -1.486,4.343 -1.486,6.674 0,8.653 7.039,15.692 15.691,15.692 8.652,0 15.691,-7.039 15.691,-15.692 C 15.691,7.04 8.652,0 0,0"
           style="fill:#1d95bc;fill-opacity:1;fill-rule:nonzero;stroke:none"
           id="path712" />
      </g>
      <g
         id="g714"
         transform="translate(437.5762,229.46)">
        <path
           d="m 0,0 c 0,-3.797 -3.078,-6.875 -6.875,-6.875 -3.797,0 -6.875,3.078 -6.875,6.875 0,3.797 3.078,6.875 6.875,6.875 C -3.078,6.875 0,3.797 0,0"
           style="fill:#3cddef;fill-opacity:1;fill-rule:nonzero;stroke:none"
           id="path716" />
      </g>
      <g
         id="g718"
         transform="translate(429.0029,190.7266)">
        <path
           d="m 0,0 h -25.25 c -0.553,0 -1,0.447 -1,1 0,0.553 0.447,1 1,1 H 0 C 0.553,2 1,1.553 1,1 1,0.447 0.553,0 0,0"
           style="fill:#3cddef;fill-opacity:1;fill-rule:nonzero;stroke:none"
           id="path720" />
      </g>
    </g>
  </g>
</svg>
