<?xml version="1.0" encoding="UTF-8" standalone="no"?>
<svg
   xmlns:dc="http://purl.org/dc/elements/1.1/"
   xmlns:cc="http://creativecommons.org/ns#"
   xmlns:rdf="http://www.w3.org/1999/02/22-rdf-syntax-ns#"
   xmlns:svg="http://www.w3.org/2000/svg"
   xmlns="http://www.w3.org/2000/svg"
   id="svg3144"
   version="1.1"
   viewBox="0 0 32.170967 32.170261"
   height="32.170261mm"
   width="32.170967mm">
  <defs
     id="defs3138" />
  <metadata
     id="metadata3141">
    <rdf:RDF>
      <cc:Work
         rdf:about="">
        <dc:format>image/svg+xml</dc:format>
        <dc:type
           rdf:resource="http://purl.org/dc/dcmitype/StillImage" />
        <dc:title></dc:title>
      </cc:Work>
    </rdf:RDF>
  </metadata>
  <g
     transform="translate(-51.011647,-68.500473)"
     id="layer1">
    <g
       id="g2965"
       transform="matrix(0.35277777,0,0,-0.35277777,34.855358,153.15583)">
      <g
         id="g552"
         transform="translate(91.3945,151.6113)">
        <path
           d="m 0,0 c -8.198,0 -15.405,9.47 -18.807,24.714 -0.12,0.539 0.219,1.073 0.758,1.193 0.539,0.121 1.073,-0.219 1.194,-0.758 C -13.716,11.087 -7.101,2 0,2 c 10.318,0 18.712,18.285 18.712,40.761 0,11.01 -2.016,21.346 -5.678,29.103 -3.549,7.519 -8.178,11.658 -13.035,11.658 -7.1,10e-4 -13.715,-9.085 -16.854,-23.149 -0.121,-0.54 -0.654,-0.881 -1.194,-0.758 -0.539,0.12 -0.878,0.655 -0.758,1.194 3.402,15.244 10.608,24.713 18.805,24.713 h 0.001 C 5.673,85.523 10.945,80.976 14.843,72.719 18.627,64.7 20.712,54.061 20.712,42.761 20.712,18.783 11.614,0 0,0"
           style="fill:#a2cf31;fill-opacity:1;fill-rule:nonzero;stroke:none"
           id="path554" />
      </g>
      <g
         id="g556"
         transform="translate(91.394,213.085)">
        <path
           d="m 0,0 c -11.011,0 -21.347,-2.017 -29.104,-5.678 -7.518,-3.549 -11.658,-8.177 -11.658,-13.034 0,-4.857 4.14,-9.486 11.658,-13.035 7.758,-3.661 18.093,-5.678 29.104,-5.678 22.477,0 40.762,8.394 40.762,18.711 C 40.762,-8.395 22.477,0 0,0 m 0,-39.425 c -11.3,0 -21.938,2.084 -29.957,5.869 -8.257,3.898 -12.805,9.169 -12.805,14.844 0,5.674 4.547,10.945 12.805,14.843 C -21.939,-0.084 -11.3,2 0,2 23.979,2 42.762,-7.099 42.762,-18.714 42.762,-30.327 23.979,-39.425 0,-39.425"
           style="fill:#a2cf31;fill-opacity:1;fill-rule:nonzero;stroke:none"
           id="path558" />
      </g>
      <g
         id="g560"
         transform="translate(112.1772,160.2041)">
        <path
           d="m 0,0 c -3.05,0 -6.505,0.67 -10.265,2.019 -8.414,3.018 -17.476,9.109 -25.517,17.15 -8.042,8.041 -14.133,17.103 -17.151,25.519 -3.151,8.787 -2.598,15.915 1.559,20.071 5.973,5.973 18.003,4.396 31.398,-4.11 0.699,-0.444 0.906,-1.371 0.462,-2.071 -0.444,-0.697 -1.371,-0.904 -2.07,-0.462 -11.958,7.597 -22.82,9.371 -27.669,4.522 -3.289,-3.289 -3.594,-9.305 -0.856,-16.938 2.872,-8.007 8.713,-16.676 16.448,-24.41 7.735,-7.734 16.403,-13.576 24.41,-16.447 7.633,-2.739 13.649,-2.434 16.938,0.856 4.849,4.849 3.074,15.709 -4.522,27.667 -0.444,0.699 -0.237,1.627 0.462,2.072 0.701,0.443 1.627,0.236 2.07,-0.462 C 14.206,21.581 15.781,9.55 9.808,3.578 7.43,1.199 4.078,0.001 0,0"
           style="fill:#399822;fill-opacity:1;fill-rule:nonzero;stroke:none"
           id="path562" />
      </g>
      <g
         id="g564"
         transform="translate(112.1704,225.5342)">
        <path
           d="m 0,0 c -9.337,0 -22.547,-7.177 -33.654,-18.283 -7.735,-7.736 -13.576,-16.405 -16.448,-24.41 -2.738,-7.633 -2.434,-13.648 0.856,-16.938 1.787,-1.787 4.375,-2.693 7.694,-2.693 9.337,0 22.547,7.177 33.655,18.284 C 7.534,-28.608 14.674,-9.673 7.694,-2.692 5.907,-0.905 3.318,0 0,0 m -41.552,-65.324 c -4.143,0 -7.446,1.202 -9.815,3.572 -4.157,4.156 -4.711,11.285 -1.559,20.071 3.018,8.414 9.109,17.477 17.151,25.519 C -23.956,-4.342 -10.247,3 0,3 4.143,3 7.445,1.799 9.815,-0.571 c 8.411,-8.411 1.562,-28.437 -15.591,-45.59 -11.82,-11.82 -25.529,-19.163 -35.776,-19.163"
           style="fill:#399822;fill-opacity:1;fill-rule:nonzero;stroke:none"
           id="path566" />
      </g>
      <g
         id="g568"
         transform="translate(97.0371,188.7285)">
        <path
           d="m 0,0 c -3.116,-3.116 -8.17,-3.117 -11.287,0 -3.117,3.117 -3.116,8.171 0,11.287 3.117,3.115 8.17,3.117 11.287,0 C 3.117,8.171 3.116,3.117 0,0"
           style="fill:#a2cf31;fill-opacity:1;fill-rule:nonzero;stroke:none"
           id="path570" />
      </g>
      <g
         id="g572"
         transform="translate(91.3945,205.3428)">
        <path
           d="m 0,0 c -2.931,0 -5.687,-1.142 -7.759,-3.214 -2.072,-2.071 -3.213,-4.825 -3.213,-7.756 0,-2.929 1.141,-5.685 3.213,-7.758 2.072,-2.072 4.827,-3.213 7.758,-3.213 2.93,0 5.685,1.14 7.757,3.213 2.073,2.073 3.214,4.829 3.215,7.759 0,2.93 -1.141,5.684 -3.213,7.755 C 5.686,-1.142 2.931,0 0,0 m -0.001,-23.941 c -3.465,0 -6.723,1.349 -9.172,3.799 -2.45,2.451 -3.799,5.708 -3.799,9.173 0,3.464 1.349,6.721 3.799,9.169 C -6.723,0.65 -3.465,2 0,2 3.465,2 6.723,0.65 9.172,-1.8 c 2.45,-2.448 3.799,-5.705 3.799,-9.17 -10e-4,-3.464 -1.35,-6.721 -3.801,-9.172 -2.449,-2.45 -5.706,-3.799 -9.171,-3.799"
           style="fill:#a2cf31;fill-opacity:1;fill-rule:nonzero;stroke:none"
           id="path574" />
      </g>
      <g
         id="g576"
         transform="translate(124.6865,220.1406)">
        <path
           d="m 0,0 c -2.077,-2.078 -5.447,-2.078 -7.524,0 -2.078,2.077 -2.078,5.446 0,7.524 2.077,2.078 5.446,2.078 7.524,0 C 2.078,5.446 2.078,2.077 0,0"
           style="fill:#ffffff;fill-opacity:1;fill-rule:nonzero;stroke:none"
           id="path578" />
      </g>
      <g
         id="g580"
         transform="translate(120.9243,227.7227)">
        <path
           d="m 0,0 c -1.021,0 -1.98,-0.397 -2.702,-1.118 -1.489,-1.49 -1.489,-3.914 0,-5.403 1.444,-1.445 3.961,-1.443 5.403,0 1.49,1.489 1.49,3.913 10e-4,5.403 C 1.98,-0.397 1.021,0 0,0 m 0,-10.641 c -1.822,0 -3.535,0.71 -4.823,1.998 -2.659,2.659 -2.659,6.986 0,9.646 C -3.535,2.291 -1.822,3 0,3 1.822,3 3.535,2.291 4.823,1.003 c 2.659,-2.66 2.659,-6.987 0,-9.646 C 3.535,-9.931 1.822,-10.641 0,-10.641"
           style="fill:#399822;fill-opacity:1;fill-rule:nonzero;stroke:none"
           id="path582" />
      </g>
      <g
         id="g584"
         transform="translate(65.6255,161.0791)">
        <path
           d="m 0,0 c -2.077,-2.076 -5.447,-2.077 -7.524,0 -2.078,2.078 -2.078,5.448 0,7.524 2.077,2.079 5.447,2.08 7.524,0 C 2.078,5.448 2.078,2.078 0,0"
           style="fill:#ffffff;fill-opacity:1;fill-rule:nonzero;stroke:none"
           id="path586" />
      </g>
      <g
         id="g588"
         transform="translate(61.8638,168.6621)">
        <path
           d="M 0,0 C -1.021,0 -1.98,-0.397 -2.702,-1.119 -3.423,-1.841 -3.821,-2.8 -3.821,-3.82 c 0,-1.021 0.398,-1.981 1.119,-2.702 1.442,-1.442 3.961,-1.442 5.403,0 0.721,0.721 1.119,1.681 1.119,2.702 0,1.02 -0.397,1.979 -1.118,2.701 C 1.98,-0.397 1.021,0 0,0 m -0.001,-10.641 c -1.822,0 -3.534,0.709 -4.822,1.997 -1.288,1.289 -1.998,3.001 -1.998,4.824 0,1.822 0.71,3.535 1.998,4.822 C -3.535,2.291 -1.822,3 0,3 1.822,3 3.535,2.291 4.823,1.002 c 1.288,-1.287 1.997,-3 1.997,-4.822 0,-1.823 -0.71,-3.535 -1.997,-4.824 -1.289,-1.288 -3.002,-1.997 -4.824,-1.997"
           style="fill:#399822;fill-opacity:1;fill-rule:nonzero;stroke:none"
           id="path590" />
      </g>
      <g
         id="g592"
         transform="translate(117.1616,161.0791)">
        <path
           d="m 0,0 c -2.077,2.077 -2.077,5.447 0,7.524 2.078,2.079 5.448,2.079 7.525,0 C 9.603,5.448 9.603,2.077 7.525,0 5.448,-2.078 2.078,-2.078 0,0"
           style="fill:#ffffff;fill-opacity:1;fill-rule:nonzero;stroke:none"
           id="path594" />
      </g>
      <g
         id="g596"
         transform="translate(120.9248,168.6621)">
        <path
           d="m 0,0 c -1.021,0 -1.98,-0.397 -2.702,-1.119 -0.722,-0.722 -1.119,-1.681 -1.119,-2.702 0,-1.021 0.397,-1.98 1.118,-2.701 1.444,-1.444 3.961,-1.444 5.405,0 0.721,0.721 1.118,1.68 1.118,2.702 0,1.02 -0.397,1.979 -1.118,2.701 C 1.98,-0.397 1.021,0 0,0 m 0,-10.642 c -1.823,0 -3.536,0.71 -4.824,1.998 -1.288,1.289 -1.997,3.001 -1.997,4.824 0,1.822 0.71,3.534 1.998,4.822 C -3.535,2.29 -1.822,3 0,3 1.822,3 3.535,2.29 4.823,1.002 6.111,-0.285 6.82,-1.998 6.82,-3.82 6.82,-5.643 6.111,-7.355 4.823,-8.644 3.535,-9.932 1.822,-10.642 0,-10.642"
           style="fill:#399822;fill-opacity:1;fill-rule:nonzero;stroke:none"
           id="path598" />
      </g>
      <g
         id="g600"
         transform="translate(58.1006,220.1396)">
        <path
           d="m 0,0 c -2.077,2.077 -2.077,5.447 0,7.525 2.078,2.078 5.448,2.078 7.525,0 C 9.603,5.447 9.603,2.078 7.525,0 5.448,-2.077 2.078,-2.077 0,0"
           style="fill:#ffffff;fill-opacity:1;fill-rule:nonzero;stroke:none"
           id="path602" />
      </g>
      <g
         id="g604"
         transform="translate(61.8638,227.7227)">
        <path
           d="m 0,0 c -1.021,0 -1.98,-0.397 -2.702,-1.118 -1.49,-1.49 -1.49,-3.915 -10e-4,-5.404 1.444,-1.442 3.961,-1.442 5.405,0 1.489,1.49 1.489,3.914 0,5.404 C 1.98,-0.397 1.021,0 0,0 m 0,-10.641 c -1.823,0 -3.536,0.709 -4.824,1.997 -2.659,2.66 -2.659,6.987 0,9.647 C -3.535,2.291 -1.822,3 0,3 1.822,3 3.535,2.291 4.823,1.003 7.482,-1.656 7.482,-5.984 4.823,-8.644 3.535,-9.932 1.822,-10.641 0,-10.641"
           style="fill:#399822;fill-opacity:1;fill-rule:nonzero;stroke:none"
           id="path606" />
      </g>
    </g>
  </g>
</svg>
