<?xml version="1.0" encoding="UTF-8" standalone="no"?>
<svg
   xmlns:dc="http://purl.org/dc/elements/1.1/"
   xmlns:cc="http://creativecommons.org/ns#"
   xmlns:rdf="http://www.w3.org/1999/02/22-rdf-syntax-ns#"
   xmlns:svg="http://www.w3.org/2000/svg"
   xmlns="http://www.w3.org/2000/svg"
   id="svg3144"
   version="1.1"
   viewBox="0 0 28.533174 27.16131"
   height="27.16131mm"
   width="28.533175mm">
  <defs
     id="defs3138" />
  <metadata
     id="metadata3141">
    <rdf:RDF>
      <cc:Work
         rdf:about="">
        <dc:format>image/svg+xml</dc:format>
        <dc:type
           rdf:resource="http://purl.org/dc/dcmitype/StillImage" />
        <dc:title></dc:title>
      </cc:Work>
    </rdf:RDF>
  </metadata>
  <g
     transform="translate(-74.00353,-64.874103)"
     id="layer1">
    <g
       id="g3096"
       transform="matrix(0.35277777,0,0,-0.35277777,-22.044029,110.22476)">
      <g
         id="g794"
         transform="translate(311.1064,98.3584)">
        <path
           d="m 0,0 c 0.268,-0.009 0.533,-0.009 0.801,0 1.376,5.473 5.554,9.828 10.934,11.431 -0.027,2.866 -1.13,5.723 -3.317,7.911 -2.767,2.765 -8.019,8.018 -8.019,8.018 0,0 -6.357,-6.36 -8.016,-8.018 -2.189,-2.187 -3.292,-5.045 -3.32,-7.91 C -5.557,9.829 -1.377,5.474 0,0"
           style="fill:#3cddef;fill-opacity:1;fill-rule:nonzero;stroke:none"
           id="path796" />
      </g>
      <g
         id="g798"
         transform="translate(295.5947,108.959)">
        <path
           d="m 0,0 c -8.001,0 -14.511,-6.51 -14.511,-14.512 0,-3.873 1.444,-7.449 4.065,-10.07 l 26.358,-26.361 26.358,26.361 c 2.622,2.62 4.065,6.196 4.065,10.07 C 46.335,-6.51 39.825,0 31.824,0 24.421,0 18.221,-5.541 17.403,-12.889 c -0.085,-0.759 -0.726,-1.334 -1.491,-1.334 -0.765,0 -1.406,0.575 -1.491,1.334 C 13.604,-5.541 7.403,0 0,0 m 15.912,-54.564 c -0.397,0 -0.779,0.158 -1.06,0.439 l -27.419,27.422 c -3.188,3.187 -4.944,7.517 -4.944,12.191 C -17.511,-4.855 -9.655,3 0,3 7.01,3 13.126,-1.118 15.912,-7.176 18.698,-1.118 24.814,3 31.824,3 c 9.655,0 17.511,-7.855 17.511,-17.512 0,-4.675 -1.756,-9.006 -4.944,-12.191 L 16.973,-54.125 c -0.282,-0.281 -0.663,-0.439 -1.061,-0.439"
           style="fill:#1d95bc;fill-opacity:1;fill-rule:nonzero;stroke:none"
           id="path800" />
      </g>
      <g
         id="g802"
         transform="translate(309.0332,89.8682)">
        <path
           d="M 0,0 C 0.512,0.512 2.473,2.474 2.473,2.474 L 4.946,0 c 1.366,-1.366 1.366,-3.581 0,-4.947 C 3.58,-6.313 1.365,-6.313 0,-4.947 -1.367,-3.581 -1.367,-1.366 0,0"
           style="fill:#3cddef;fill-opacity:1;fill-rule:nonzero;stroke:none"
           id="path804" />
      </g>
      <g
         id="g806"
         transform="translate(307.7812,77.1934)">
        <path
           d="M 0,0 C 0.771,0.771 3.725,3.726 3.725,3.726 L 7.45,0 c 2.059,-2.059 2.059,-5.395 0,-7.452 C 5.393,-9.51 2.057,-9.51 0,-7.452 -2.06,-5.395 -2.06,-2.059 0,0"
           style="fill:#3cddef;fill-opacity:1;fill-rule:nonzero;stroke:none"
           id="path808" />
      </g>
      <g
         id="g810"
         transform="translate(276.0957,82.6973)">
        <path
           d="m 0,0 c -0.256,0 -0.512,0.098 -0.707,0.293 -0.391,0.391 -0.391,1.023 0,1.414 l 15.648,15.648 c 0.391,0.391 1.024,0.391 1.414,0 0.391,-0.39 0.391,-1.023 0,-1.414 L 0.707,0.293 C 0.512,0.098 0.256,0 0,0"
           style="fill:#3cddef;fill-opacity:1;fill-rule:nonzero;stroke:none"
           id="path812" />
      </g>
      <g
         id="g814"
         transform="translate(291.7441,94.2813)">
        <path
           d="m 0,0 c -0.553,0 -1,0.447 -1,1 v 3.064 h -3.064 c -0.553,0 -1,0.448 -1,1 0,0.553 0.447,1 1,1 H 0 c 0.553,0 1,-0.447 1,-1 V 1 C 1,0.447 0.553,0 0,0"
           style="fill:#3cddef;fill-opacity:1;fill-rule:nonzero;stroke:none"
           id="path816" />
      </g>
      <g
         id="g818"
         transform="translate(282.0879,76.7041)">
        <path
           d="m 0,0 c -0.256,0 -0.512,0.098 -0.707,0.293 -0.391,0.391 -0.391,1.023 0,1.414 l 15.648,15.648 c 0.391,0.391 1.024,0.391 1.414,0 0.391,-0.39 0.391,-1.023 0,-1.414 L 0.707,0.293 C 0.512,0.098 0.256,0 0,0"
           style="fill:#3cddef;fill-opacity:1;fill-rule:nonzero;stroke:none"
           id="path820" />
      </g>
      <g
         id="g822"
         transform="translate(297.7363,88.2881)">
        <path
           d="m 0,0 c -0.553,0 -1,0.447 -1,1 v 3.064 h -3.064 c -0.553,0 -1,0.448 -1,1 0,0.553 0.447,1 1,1 H 0 c 0.553,0 1,-0.447 1,-1 V 1 C 1,0.447 0.553,0 0,0"
           style="fill:#3cddef;fill-opacity:1;fill-rule:nonzero;stroke:none"
           id="path824" />
      </g>
      <g
         id="g826"
         transform="translate(288.0801,70.7109)">
        <path
           d="m 0,0 c -0.256,0 -0.512,0.098 -0.707,0.293 -0.391,0.391 -0.391,1.023 0,1.414 l 15.648,15.648 c 0.391,0.391 1.024,0.391 1.414,0 0.391,-0.39 0.391,-1.023 0,-1.414 L 0.707,0.293 C 0.512,0.098 0.256,0 0,0"
           style="fill:#3cddef;fill-opacity:1;fill-rule:nonzero;stroke:none"
           id="path828" />
      </g>
      <g
         id="g830"
         transform="translate(303.7285,82.2949)">
        <path
           d="m 0,0 c -0.553,0 -1,0.447 -1,1 v 3.064 h -3.064 c -0.553,0 -1,0.448 -1,1 0,0.553 0.447,1 1,1 H 0 c 0.553,0 1,-0.447 1,-1 V 1 C 1,0.447 0.553,0 0,0"
           style="fill:#3cddef;fill-opacity:1;fill-rule:nonzero;stroke:none"
           id="path832" />
      </g>
      <g
         id="g834"
         transform="translate(321.6748,100.7529)">
        <path
           d="m 0,0 c -0.256,0 -0.512,0.098 -0.707,0.293 -0.391,0.391 -0.391,1.023 0,1.414 l 15.648,15.648 c 0.391,0.391 1.024,0.391 1.414,0 0.391,-0.39 0.391,-1.023 0,-1.414 L 0.707,0.293 C 0.512,0.098 0.256,0 0,0"
           style="fill:#3cddef;fill-opacity:1;fill-rule:nonzero;stroke:none"
           id="path836" />
      </g>
      <g
         id="g838"
         transform="translate(337.3232,112.3369)">
        <path
           d="m 0,0 c -0.553,0 -1,0.447 -1,1 v 3.064 h -3.064 c -0.553,0 -1,0.448 -1,1 0,0.553 0.447,1 1,1 H 0 c 0.553,0 1,-0.447 1,-1 V 1 C 1,0.447 0.553,0 0,0"
           style="fill:#3cddef;fill-opacity:1;fill-rule:nonzero;stroke:none"
           id="path840" />
      </g>
      <g
         id="g842"
         transform="translate(327.667,94.7598)">
        <path
           d="m 0,0 c -0.256,0 -0.512,0.098 -0.707,0.293 -0.391,0.391 -0.391,1.023 0,1.414 l 15.648,15.648 c 0.391,0.391 1.024,0.391 1.414,0 0.391,-0.39 0.391,-1.023 0,-1.414 L 0.707,0.293 C 0.512,0.098 0.256,0 0,0"
           style="fill:#3cddef;fill-opacity:1;fill-rule:nonzero;stroke:none"
           id="path844" />
      </g>
      <g
         id="g846"
         transform="translate(343.3154,106.3438)">
        <path
           d="m 0,0 c -0.553,0 -1,0.447 -1,1 v 3.064 h -3.064 c -0.553,0 -1,0.448 -1,1 0,0.553 0.447,1 1,1 H 0 c 0.553,0 1,-0.447 1,-1 V 1 C 1,0.447 0.553,0 0,0"
           style="fill:#3cddef;fill-opacity:1;fill-rule:nonzero;stroke:none"
           id="path848" />
      </g>
      <g
         id="g850"
         transform="translate(333.6592,88.7666)">
        <path
           d="m 0,0 c -0.256,0 -0.512,0.098 -0.707,0.293 -0.391,0.391 -0.391,1.023 0,1.414 l 15.648,15.648 c 0.391,0.391 1.024,0.391 1.414,0 0.391,-0.39 0.391,-1.023 0,-1.414 L 0.707,0.293 C 0.512,0.098 0.256,0 0,0"
           style="fill:#3cddef;fill-opacity:1;fill-rule:nonzero;stroke:none"
           id="path852" />
      </g>
      <g
         id="g854"
         transform="translate(349.3076,100.3506)">
        <path
           d="m 0,0 c -0.553,0 -1,0.447 -1,1 v 3.064 h -3.064 c -0.553,0 -1,0.448 -1,1 0,0.553 0.447,1 1,1 H 0 c 0.553,0 1,-0.447 1,-1 V 1 C 1,0.447 0.553,0 0,0"
           style="fill:#3cddef;fill-opacity:1;fill-rule:nonzero;stroke:none"
           id="path856" />
      </g>
    </g>
  </g>
</svg>
